# AST/ASF file generated using VICON BodyLanguage
# -----------------------------------------------
:version 1.10
:name VICON
:units
  mass 1.0
  length 0.45
  angle deg
:documentation
   .ast/.asf automatically generated from VICON data using
   VICON BodyBuilder and BodyLanguage model FoxedUp or BRILLIANT.MOD
:root
   order TX TY TZ RX RY RZ
   axis XYZ
   position 0 0 0  
   orientation 0 0 0 
:bonedata
  begin
     id 1 
     name lhipjoint
     direction 0.567725 -0.736092 0.368589 
     length 2.42353 
     axis 0 0 0  XYZ
  end
  begin
     id 2 
     name lfemur
     direction 0.34202 -0.939693 0  
     length 7.24894  
     axis 0 0 20  XYZ
    dof rx ry rz
    limits (-160.0 20.0)
           (-70.0 70.0)
           (-60.0 70.0)
  end
  begin
     id 3 
     name ltibia
     direction 0.34202 -0.939693 0   
     length 7.6997   
     axis 0 0 20   XYZ
    dof rx
    limits (-10.0 170.0)
  end
  begin
     id 4 
     name lfoot
     direction 0.100767 -0.276854 0.955614   
     length 2.37556   
     axis -90 7.62852e-016 20   XYZ
    dof rx rz
    limits (-45.0 90.0)
           (-70.0 20.0)
  end
  begin
     id 5 
     name ltoes
     direction 1.53592e-011 -4.21894e-011 1   
     length 1.18363   
     axis -90 7.62852e-016 20   XYZ
    dof rx
    limits (-90.0 20.0)
  end
  begin
     id 6 
     name rhipjoint
     direction -0.556459 -0.742938 0.372017   
     length 2.4012  
     axis 0 0 0  XYZ 
  end
  begin
     id 7 
     name rfemur
     direction -0.34202 -0.939693 0   
     length 7.5119   
     axis 0 0 -20   XYZ
    dof rx ry rz
    limits (-160.0 20.0)
           (-70.0 70.0)
           (-70.0 60.0)
  end
  begin
     id 8 
     name rtibia
     direction -0.34202 -0.939693 0   
     length 7.50155   
     axis 0 0 -20   XYZ
    dof rx
    limits (-10.0 170.0)
 end
 begin
     id 9 
     name rfoot
     direction -0.118427 -0.325376 0.938139   
     length 2.32487  
     axis -90 -7.62852e-016 -20   XYZ
    dof rx rz
    limits (-45.0 90.0)
           (-20.0 70.0)
  end
  begin
     id 10 
     name rtoes
     direction -1.53525e-011 -4.21868e-011 1   
     length 1.15233   
     axis -90 -7.62852e-016 -20   XYZ
    dof rx
    limits (-90.0 20.0)
  end
  begin
     id 11 
     name lowerback
     direction 0.0287568 0.999577 -0.00434502   
     length 2.15243   
     axis 0 0 0   XYZ
    dof rx ry rz
    limits (-20.0 45.0)
           (-30.0 30.0)
           (-30.0 30.0)
  end
  begin
     id 12 
     name upperback
     direction 0.0294009 0.99956 0.00404628   
     length 2.15427   
     axis 0 0 0   XYZ
    dof rx ry rz
    limits (-20.0 45.0)
           (-30.0 30.0)
           (-30.0 30.0)
  end
  begin
     id 13 
     name thorax
     direction 0.0151014 0.999868 0.0059419   
     length 2.14898   
     axis 0 0 0   XYZ
    dof rx ry rz
    limits (-20.0 45.0)
           (-30.0 30.0)
           (-30.0 30.0)
  end
  begin
     id 14 
     name lowerneck
     direction -0.0249197 0.989906 0.139515   
     length 1.6861   
     axis 0 0 0   XYZ
    dof rx ry rz
    limits (-20.0 45.0)
           (-30.0 30.0)
           (-30.0 30.0)
  end
  begin
     id 15 
     name upperneck
     direction 0.0438463 0.988795 -0.142693   
     length 1.71276   
     axis 0 0 0   XYZ
    dof rx ry rz
    limits (-20.0 45.0)
           (-30.0 30.0)
           (-30.0 30.0)
  end
  begin
     id 16
     name head
     direction 0.0148499 0.997845 -0.0639186  
     length 1.7209  
     axis 0 0 0   XYZ
    dof rx ry rz
    limits (-20.0 45.0)
           (-30.0 30.0)
           (-30.0 30.0)
  end
  begin
     id 17 
     name lclavicle
     direction 0.940298 0.323464 -0.105876  
     length 3.9048  
     axis 0 0 0   XYZ
    dof ry rz
    limits (-20.0 10.0)
           (0.0 20.0)
  end
  begin
     id 18 
     name lhumerus
     direction 1 -4.48954e-011 -4.9675e-028   
     length 4.6851   
     axis 180 -30 -90   XYZ
    dof rx ry rz
    limits (-60.0 90.0)
           (-90.0 90.0)
           (-90.0 90.0)
  end
  begin
     id 19
     name lradius
     direction 1 -4.48992e-011 -1.03359e-026   
     length 3.39626   
     axis 180 -30 -90   XYZ
    dof rx
    limits (-10.0 170.0)
  end
  begin
     id 20
     name lwrist
     direction 1 -4.48906e-011 -1.67336e-026   
     length 1.69813   
     axis 9.90442e-015 90 90   XYZ
    dof ry
    limits (-180.0 0.0)
 end
  begin
     id 21 
     name lhand
     direction 1 -4.49006e-011 -3.34673e-026   
     length 0.486078   
     axis 2.1355e-014 90 90   XYZ
    dof rx rz
    limits (-90.0 90.0)
           (-45.0 45.0)
  end
  begin
     id 22 
     name lfingers
     direction 1 -4.48992e-011 -6.69345e-026   
     length 0.391889   
     axis 4.27099e-014 90 90   XYZ
    dof rx
    limits (0.0 90.0)
  end
  begin
     id 23
     name lthumb
     direction 0.707107 -6.34926e-011 0.707107   
     length 0.562676   
     axis -90 45 2.85299e-015   XYZ
    dof rx rz
    limits (-45.0 45.0)
           (-45.0 45.0)
  end
  begin
     id 24 
     name rclavicle
     direction -0.882459 0.414895 -0.221648   
     length 3.44646  
     axis 0 0 0   XYZ 
    dof ry rz
    limits (-10.0 20.0)
           (-20.0 0.0)
  end
  begin
     id 25 
     name rhumerus
     direction -1 -4.48962e-011 -2.37984e-027  
     length 5.55576   
     axis 180 30 90   XYZ
    dof rx ry rz
    limits (-90.0 60.0)
           (-90.0 90.0)
           (-90.0 90.0)
  end
  begin
     id 26 
     name rradius
     direction -1 -4.48982e-011 -6.86791e-027   
     length 3.32774   
     axis 180 30 90   XYZ
    dof rx
    limits (-10.0 170.0)
  end
  begin
     id 27 
     name rwrist
     direction -1 -4.48961e-011 -1.67336e-026   
     length 1.66387   
     axis 9.90442e-015 -90 -90   XYZ
    dof ry
    limits (-180.0 0.0)
  end
  begin
     id 28
     name rhand
     direction -1 -4.4897e-011 -3.34673e-026   
     length 0.507628   
     axis 2.1355e-014 -90 -90   XYZ
    dof rx rz
    limits (-90.0 90.0)
           (-45.0 45.0)
  end
  begin
     id 29
     name rfingers
     direction -1 -4.48854e-011 -6.69345e-026   
     length 0.409263   
     axis 4.27099e-014 -90 -90   XYZ
    dof rx
    limits (0.0 90.0)
  end
  begin
     id 30
     name rthumb
     direction -0.707107 -6.34913e-011 0.707107   
     length 0.587622   
     axis -90 -45 -2.85299e-015   XYZ
    dof rx rz
    limits (-45.0 45.0)
           (-45.0 45.0)
  end
:hierarchy
  begin
    root lhipjoint rhipjoint lowerback
    lhipjoint lfemur
    lfemur ltibia
    ltibia lfoot
    lfoot ltoes
    rhipjoint rfemur
    rfemur rtibia
    rtibia rfoot
    rfoot rtoes
    lowerback upperback
    upperback thorax
    thorax lowerneck lclavicle rclavicle
    lowerneck upperneck
    upperneck head
    lclavicle lhumerus
    lhumerus lradius
    lradius lwrist
    lwrist lhand lthumb
    lhand lfingers
    rclavicle rhumerus
    rhumerus rradius
    rradius rwrist
    rwrist rhand rthumb
    rhand rfingers
  end

#!OML:ASF E:\motion texture\Top Level 1\Subject 1\Session 1\male.ASF
:FULLY-SPECIFIED
:DEGREES
121
root 36.4736 17.5393 4.71871 151.039 -79.0172 -139.448
lowerback -1.95664 0.475045 6.78473
upperback -0.885843 0.377184 3.87397
thorax 0.208012 0.126891 0.196057
lowerneck -15.5068 -2.77831 -5.26062
upperneck 8.78474 -3.26548 5.06736
head 5.34008 -1.41599 2.14996
rclavicle -1.43125e-014 4.53229e-014
rhumerus -29.7363 -15.9986 -71.2419
rradius 23.9592
rwrist 18.9982
rhand -13.0924 -24.4956
rfingers 7.12502
rthumb 13.0041 -54.0703
lclavicle -1.43125e-014 4.53229e-014
lhumerus -33.111 23.4853 81.7256
lradius 23.1387
lwrist -37.2243
lhand -11.7756 17.7872
lfingers 7.12502
lthumb 14.2732 47.2767
rfemur -2.11652 2.42191 26.7912
rtibia 25.3863
rfoot -11.0929 -4.54921
rtoes -5.14086
lfemur -30.1287 1.9439 -7.69092
ltibia 15.8353
lfoot -1.47491 9.55102
ltoes -1.34821
122
root 36.3586 17.543 4.74476 151.732 -79.0759 -140.227
lowerback -1.94201 0.468486 6.64307
upperback -0.866819 0.374587 3.83146
thorax 0.218646 0.127846 0.230507
lowerneck -15.4595 -2.75765 -5.23526
upperneck 8.75847 -3.2328 4.9789
head 5.32031 -1.40607 2.12126
rclavicle 1.31198e-014 -4.77083e-015
rhumerus -29.7402 -15.9351 -71.2982
rradius 24.1113
rwrist 18.9431
rhand -13.0647 -24.4466
rfingers 7.12502
rthumb 13.0308 -54.0196
lclavicle 1.31198e-014 -4.77083e-015
lhumerus -32.9334 23.0153 81.9422
lradius 23.3035
lwrist -37.1605
lhand -11.6523 17.6748
lfingers 7.12502
lthumb 14.3921 47.1558
rfemur -2.40716 2.34934 26.4192
rtibia 26.498
rfoot -10.5635 -4.5639
rtoes -5.44544
lfemur -29.8059 1.92177 -8.09655
ltibia 16.0302
lfoot -1.37446 9.25207
ltoes -0.727034
123
root 36.2432 17.5471 4.77087 152.449 -79.1398 -141.038
lowerback -1.92776 0.459328 6.49557
upperback -0.846634 0.368628 3.78687
thorax 0.230516 0.127199 0.266019
lowerneck -15.4043 -2.73286 -5.20733
upperneck 8.73416 -3.19528 4.88797
head 5.29959 -1.39394 2.09187
rclavicle -1.51076e-014 -3.97569e-015
rhumerus -29.7419 -15.8597 -71.3597
rradius 24.2694
rwrist 18.8911
rhand -13.0366 -24.3904
rfingers 7.12502
rthumb 13.0579 -53.9617
lclavicle -1.51076e-014 -3.97569e-015
lhumerus -32.7503 22.5251 82.1614
lradius 23.4848
lwrist -37.0734
lhand -11.5148 17.5513
lfingers 7.12502
lthumb 14.5246 47.0229
rfemur -2.73154 2.26833 26.0399
rtibia 27.6586
rfoot -10.0025 -4.6078
rtoes -5.67588
lfemur -29.4589 1.89355 -8.51122
ltibia 16.2122
lfoot -1.29693 8.96018
ltoes -0.103047
124
root 36.1275 17.5518 4.79698 153.196 -79.2063 -141.885
lowerback -1.91394 0.4507 6.34255
upperback -0.82095 0.363228 3.73927
thorax 0.248318 0.127091 0.301576
lowerneck -15.3621 -2.70694 -5.17377
upperneck 8.71709 -3.15692 4.79566
head 5.28315 -1.38109 2.06113
rclavicle -2.22639e-014 -4.45278e-014
rhumerus -29.7336 -15.7814 -71.4271
rradius 24.435
rwrist 18.8417
rhand -13.0106 -24.3288
rfingers 7.12502
rthumb 13.0829 -53.8984
lclavicle -2.22639e-014 -4.45278e-014
lhumerus -32.5477 22.0137 82.3868
lradius 23.6804
lwrist -36.9575
lhand -11.3595 17.4236
lfingers 7.12502
lthumb 14.6741 46.8843
rfemur -3.0921 2.18052 25.6549
rtibia 28.8671
rfoot -9.41286 -4.68212
rtoes -5.83387
lfemur -29.0867 1.86134 -8.93317
ltibia 16.3753
lfoot -1.24044 8.6776
ltoes 0.504925
125
root 36.0116 17.5569 4.82303 153.971 -79.2752 -142.769
lowerback -1.89484 0.440853 6.18155
upperback -0.796805 0.356958 3.69179
thorax 0.261489 0.1264 0.341685
lowerneck -15.3165 -2.67802 -5.13805
upperneck 8.70733 -3.11492 4.69974
head 5.26825 -1.36665 2.02926
rclavicle 4.62174e-014 9.54166e-015
rhumerus -29.7275 -15.6854 -71.4958
rradius 24.612
rwrist 18.789
rhand -12.9855 -24.2632
rfingers 7.12502
rthumb 13.1072 -53.8313
lclavicle 4.62174e-014 9.54166e-015
lhumerus -32.3432 21.4847 82.6145
lradius 23.8965
lwrist -36.794
lhand -11.1779 17.3002
lfingers 7.12502
lthumb 14.8491 46.7481
rfemur -3.48697 2.086 25.265
rtibia 30.1183
rfoot -8.79663 -4.78848
rtoes -5.91506
lfemur -28.6867 1.82159 -9.36009
ltibia 16.5138
lfoot -1.20698 8.40817
ltoes 1.11031
126
root 35.8956 17.5624 4.84897 154.76 -79.3456 -143.675
lowerback -1.87217 0.429409 6.01591
upperback -0.773233 0.348946 3.64496
thorax 0.27198 0.124726 0.385039
lowerneck -15.2674 -2.64539 -5.1007
upperneck 8.70194 -3.06834 4.60194
head 5.25392 -1.35005 1.99698
rclavicle 1.19271e-014 -6.20208e-014
rhumerus -29.7214 -15.5728 -71.5661
rradius 24.801
rwrist 18.7333
rhand -12.9602 -24.1925
rfingers 7.12502
rthumb 13.1315 -53.759
lclavicle 1.19271e-014 -6.20208e-014
lhumerus -32.1355 20.9475 82.8393
lradius 24.1301
lwrist -36.5873
lhand -10.9778 17.17
lfingers 7.12502
lthumb 15.0419 46.6035
rfemur -3.91674 1.98429 24.8745
rtibia 31.4076
rfoot -8.15728 -4.92833
rtoes -5.9247
lfemur -28.2602 1.77431 -9.78847
ltibia 16.6262
lfoot -1.19716 8.15258
ltoes 1.69301
127
root 35.7797 17.5683 4.87469 155.576 -79.4201 -144.613
lowerback -1.84818 0.416591 5.84307
upperback -0.748696 0.339329 3.59659
thorax 0.282651 0.122271 0.43083
lowerneck -15.2171 -2.60996 -5.06008
upperneck 8.70091 -3.0188 4.50349
head 5.24062 -1.33192 1.96424
rclavicle 7.05686e-015 -7.95139e-016
rhumerus -29.7138 -15.4479 -71.6394
rradius 25.0037
rwrist 18.6753
rhand -12.9374 -24.1182
rfingers 7.12502
rthumb 13.1536 -53.6833
lclavicle 7.05686e-015 -7.95139e-016
lhumerus -31.9202 20.4042 83.0585
lradius 24.3803
lwrist -36.3305
lhand -10.7598 17.0338
lfingers 7.12502
lthumb 15.2519 46.4515
rfemur -4.38196 1.87479 24.481
rtibia 32.731
rfoot -7.50429 -5.10259
rtoes -5.8809
lfemur -27.8082 1.72141 -10.2221
ltibia 16.709
lfoot -1.21014 7.90747
ltoes 2.25494
